<?xml version="1.0" encoding="utf-8"?>
<!-- Generator: Adobe Illustrator 17.0.0, SVG Export Plug-In . SVG Version: 6.00 Build 0)  -->
<!DOCTYPE svg PUBLIC "-//W3C//DTD SVG 1.1//EN" "http://www.w3.org/Graphics/SVG/1.1/DTD/svg11.dtd">
<svg version="1.1" id="Layer_1" xmlns="http://www.w3.org/2000/svg" xmlns:xlink="http://www.w3.org/1999/xlink" x="0px" y="0px"
	 width="215.801px" height="305.121px" viewBox="0 0 215.801 305.121" enable-background="new 0 0 215.801 305.121"
	 xml:space="preserve">
<path fill="none" stroke="#000000" stroke-width="6" stroke-miterlimit="10" d="M79.812-15.788"/>
<g>
	<rect x="48.971" y="216.564" width="115.971" height="46.584"/>
	<polygon points="134.94,295.814 78.973,295.814 48.971,269.231 164.942,269.231 	"/>
	<path fill="none" stroke="#000000" stroke-width="6" stroke-miterlimit="10" d="M108.281,12.723
		c-57.649,0-104.383,46.734-104.383,104.383c0,37.964,20.269,71.191,50.574,89.458H162.09
		c30.305-18.267,50.574-51.495,50.574-89.458C212.664,59.456,165.93,12.723,108.281,12.723z"/>
	<path fill="#FCEE21" stroke="#000000" stroke-width="6" stroke-miterlimit="10" d="M108.281,12.723
		c-57.649,0-104.383,46.734-104.383,104.383c0,37.964,20.269,71.191,50.574,89.458H162.09
		c30.305-18.267,50.574-51.495,50.574-89.458C212.664,59.456,165.93,12.723,108.281,12.723z"/>
</g>
</svg>
